<?xml version="1.0" encoding="utf-8"?>
<!-- Generator: Adobe Illustrator 21.0.0, SVG Export Plug-In . SVG Version: 6.00 Build 0)  -->
<svg version="1.1" id="Layer_1" xmlns="http://www.w3.org/2000/svg" xmlns:xlink="http://www.w3.org/1999/xlink" x="0px" y="0px"
	 viewBox="0 0 1079.2 728.1" style="enable-background:new 0 0 1079.2 728.1;" xml:space="preserve">
<style type="text/css">
	.st0{fill:none;stroke:#FCF262;stroke-width:3;stroke-linejoin:round;stroke-miterlimit:10;}
	.st1{fill:#FCF262;}
	.st2{display:none;}
	.st3{display:inline;}
	.st4{fill:none;stroke:#FCF262;stroke-width:20;stroke-linejoin:round;}
	.st5{fill:none;stroke:#FCF262;stroke-width:20;stroke-linejoin:round;stroke-dasharray:4.1928,37.7349,4.1928,25.1566;}
	
		.st6{fill:none;stroke:#FCF262;stroke-width:20;stroke-linejoin:round;stroke-dasharray:4.1928,12.5783,4.1928,37.7349,4.1928,25.1566;}
	.st7{fill:none;stroke:#FCF262;stroke-width:2.1985;stroke-linejoin:round;stroke-miterlimit:10;}
</style>
<g class="st2">
	<g class="st3">
		<g>
			<path class="st1" d="M990.3,199.1l17.4,23.8H936l17.4-23.8H990.3 M990.8,198h-37.9l-19,25.9h75.9L990.8,198L990.8,198z"/>
		</g>
		<g>
			<polygon class="st1" points="937,236.4 1006.7,236.4 1009.8,228.2 933.9,228.2 			"/>
			<polygon class="st1" points="941.6,248.7 1002.1,248.7 1005.2,240.5 938.5,240.5 			"/>
			<polygon class="st1" points="946.2,261 997.5,261 1000.6,252.8 943.2,252.8 			"/>
			<polygon class="st1" points="950.9,273.3 992.9,273.3 996,265.1 947.8,265.1 			"/>
			<polygon class="st1" points="955.5,285.6 988.3,285.6 991.4,277.4 952.4,277.4 			"/>
			<polygon class="st1" points="959.9,297.5 983.8,297.5 986.8,289.7 957,289.7 			"/>
		</g>
	</g>
	<g class="st3">
		<g>
			<path class="st1" d="M1007.7,495.8l-17.4,23.8h-36.9L936,495.8H1007.7 M1009.8,494.7h-75.9l19,25.9h37.9L1009.8,494.7
				L1009.8,494.7z"/>
		</g>
		<g>
			<polygon class="st1" points="937,482.2 1006.7,482.2 1009.8,490.4 933.9,490.4 			"/>
			<polygon class="st1" points="941.6,469.9 1002.1,469.9 1005.2,478.1 938.5,478.1 			"/>
			<polygon class="st1" points="946.2,457.6 997.5,457.6 1000.6,465.8 943.2,465.8 			"/>
			<polygon class="st1" points="950.9,445.3 992.9,445.3 996,453.5 947.8,453.5 			"/>
			<polygon class="st1" points="955.5,432.9 988.3,432.9 991.4,441.2 952.4,441.2 			"/>
			<polygon class="st1" points="959.9,421.1 983.8,421.1 986.8,428.9 957,428.9 			"/>
		</g>
	</g>
	<g class="st3">
		<g>
			<path class="st1" d="M124.5,199.1l17.4,23.8H70.2l17.4-23.8H124.5 M125,198H87.1l-19,25.9H144L125,198L125,198z"/>
		</g>
		<g>
			<polygon class="st1" points="71.2,236.4 140.9,236.4 144,228.2 68.1,228.2 			"/>
			<polygon class="st1" points="75.8,248.7 136.3,248.7 139.4,240.5 72.7,240.5 			"/>
			<polygon class="st1" points="80.4,261 131.7,261 134.8,252.8 77.3,252.8 			"/>
			<polygon class="st1" points="85,273.3 127.1,273.3 130.2,265.1 81.9,265.1 			"/>
			<polygon class="st1" points="89.6,285.6 122.4,285.6 125.5,277.4 86.5,277.4 			"/>
			<polygon class="st1" points="94.1,297.5 118,297.5 120.9,289.7 91.2,289.7 			"/>
		</g>
	</g>
	<g class="st3">
		<g>
			<path class="st1" d="M141.9,495.8l-17.4,23.8H87.6l-17.4-23.8H141.9 M144,494.7H68.1l19,25.9H125L144,494.7L144,494.7z"/>
		</g>
		<g>
			<polygon class="st1" points="71.2,482.2 140.9,482.2 144,490.4 68.1,490.4 			"/>
			<polygon class="st1" points="75.8,469.9 136.3,469.9 139.4,478.1 72.7,478.1 			"/>
			<polygon class="st1" points="80.4,457.6 131.7,457.6 134.8,465.8 77.3,465.8 			"/>
			<polygon class="st1" points="85,445.3 127.1,445.3 130.2,453.5 81.9,453.5 			"/>
			<polygon class="st1" points="89.6,432.9 122.4,432.9 125.5,441.2 86.5,441.2 			"/>
			<polygon class="st1" points="94.1,421.1 118,421.1 120.9,428.9 91.2,428.9 			"/>
		</g>
	</g>
</g>
<g>
	<g>
		<g>
			<g>
				<path class="st1" d="M0,0c4.5,1.1,9.1,2.1,13.7,3.1c4.6,1,9.1,1.8,13.7,2.7c9.2,1.7,18.4,3.3,27.6,4.8c0.2,0,0.4,0.3,0.3,0.5
					c0,0.2-0.3,0.4-0.5,0.3c0,0,0,0,0,0c-9.2-1.6-18.4-3.3-27.5-5.2c-4.6-0.9-9.1-1.9-13.7-2.9C9.1,2.2,4.5,1.2,0,0z"/>
				<path class="st1" d="M66.2,12.3l49.8,6.7l0,0c0.5,0.1,0.8,0.5,0.8,1c-0.1,0.5-0.5,0.8-1,0.8c0,0,0,0,0,0L66,13.3
					c-0.3,0-0.5-0.3-0.4-0.6C65.6,12.5,65.9,12.3,66.2,12.3L66.2,12.3z"/>
				<path class="st1" d="M149.2,22.7c42.6,4.3,85.3,7.4,128.1,9.6c1.1,0.1,2,1,2,2.2c-0.1,1.1-1,2-2.2,2c0,0,0,0,0,0
					c-42.8-2.8-85.5-6.5-128.1-11.5L149.2,22.7z"/>
				<path class="st1" d="M277.3,32.2l55.9,2.3l-0.2,5l-56-3.2c-1.1-0.1-2-1-2-2.2C275.1,33,276.1,32.2,277.3,32.2L277.3,32.2z"/>
			</g>
			<g>
				<path class="st1" d="M1079.2,0c-4.5,1.2-9.1,2.2-13.6,3.3c-4.6,1-9.1,2-13.7,2.9c-9.1,1.9-18.3,3.6-27.5,5.2
					c-0.2,0-0.4-0.1-0.5-0.3c0-0.2,0.1-0.4,0.3-0.5c0,0,0,0,0,0c9.2-1.5,18.4-3.1,27.6-4.8c4.6-0.9,9.2-1.8,13.7-2.7
					C1070.1,2.1,1074.7,1.1,1079.2,0z"/>
				<path class="st1" d="M1013.2,13.3l-49.7,7.4c-0.5,0.1-0.9-0.3-1-0.7s0.3-0.9,0.7-1c0,0,0,0,0,0l0,0l49.8-6.7l0,0
					c0.3,0,0.5,0.2,0.6,0.4C1013.7,13,1013.5,13.3,1013.2,13.3z"/>
				<path class="st1" d="M930.3,24.9c-42.6,5-85.3,8.7-128.1,11.5c-1.1,0.1-2.1-0.8-2.2-1.9s0.8-2.1,1.9-2.2c0,0,0,0,0,0
					C844.7,30,887.4,27,930,22.7L930.3,24.9z"/>
				<path class="st1" d="M802.2,36.4l-56,3.2l-0.2-5l55.9-2.3l0,0c1.1,0,2.1,0.8,2.2,2C804.2,35.4,803.3,36.3,802.2,36.4z"/>
			</g>
		</g>
		<g>
			<g>
				<line class="st4" x1="364.6" y1="38.1" x2="366.6" y2="38.1"/>
				<line class="st5" x1="379.2" y1="38.1" x2="437.9" y2="38.1"/>
				<line class="st6" x1="450.5" y1="38.1" x2="702" y2="38.1"/>
				<line class="st4" x1="714.6" y1="38.1" x2="716.6" y2="38.1"/>
			</g>
		</g>
	</g>
	<g>
		<g>
			<g>
				<path class="st1" d="M0,728.1c4.5-1.1,9.1-2.1,13.7-3.1c4.6-1,9.1-1.8,13.7-2.7c9.2-1.7,18.4-3.3,27.6-4.8
					c0.2,0,0.4-0.3,0.3-0.5c0-0.2-0.3-0.4-0.5-0.3c0,0,0,0,0,0c-9.2,1.6-18.4,3.3-27.5,5.2c-4.6,0.9-9.1,1.9-13.7,2.9
					C9.1,725.9,4.5,726.9,0,728.1z"/>
				<path class="st1" d="M66.2,715.8l49.8-6.7l0,0c0.5-0.1,0.8-0.5,0.8-1c-0.1-0.5-0.5-0.8-1-0.8c0,0,0,0,0,0L66,714.8
					c-0.3,0-0.5,0.3-0.4,0.6C65.6,715.6,65.9,715.8,66.2,715.8L66.2,715.8z"/>
				<path class="st1" d="M149.2,705.4c42.6-4.3,85.3-7.4,128.1-9.6c1.1-0.1,2-1,2-2.2s-1-2-2.2-2c0,0,0,0,0,0
					c-42.8,2.8-85.5,6.5-128.1,11.5L149.2,705.4z"/>
				<path class="st1" d="M277.3,695.9l55.9-2.3l-0.2-5l-56,3.2c-1.1,0.1-2,1-2,2.2C275.1,695.1,276.1,695.9,277.3,695.9L277.3,695.9
					z"/>
			</g>
			<g>
				<path class="st1" d="M1079.2,728.1c-4.5-1.2-9.1-2.2-13.6-3.3c-4.6-1-9.1-2-13.7-2.9c-9.1-1.9-18.3-3.6-27.5-5.2
					c-0.2,0-0.4,0.1-0.5,0.3c0,0.2,0.1,0.4,0.3,0.5c0,0,0,0,0,0c9.2,1.5,18.4,3.1,27.6,4.8c4.6,0.9,9.2,1.8,13.7,2.7
					C1070.1,726,1074.7,727,1079.2,728.1z"/>
				<path class="st1" d="M1013.2,714.8l-49.7-7.4c-0.5-0.1-0.9,0.3-1,0.7c-0.1,0.5,0.3,0.9,0.7,1c0,0,0,0,0,0l0,0l49.8,6.7l0,0
					c0.3,0,0.5-0.2,0.6-0.4C1013.7,715.1,1013.5,714.8,1013.2,714.8z"/>
				<path class="st1" d="M930.3,703.2c-42.6-5-85.3-8.7-128.1-11.5c-1.1-0.1-2.1,0.8-2.2,1.9s0.8,2.1,1.9,2.2c0,0,0,0,0,0
					c42.8,2.2,85.5,5.2,128.1,9.6L930.3,703.2z"/>
				<path class="st1" d="M802.2,691.7l-56-3.2l-0.2,5l55.9,2.3l0,0c1.1,0,2.1-0.8,2.2-2C804.2,692.7,803.3,691.8,802.2,691.7z"/>
			</g>
		</g>
		<g>
			<g>
				<line class="st4" x1="364.6" y1="690.1" x2="366.6" y2="690.1"/>
				<line class="st5" x1="379.2" y1="690.1" x2="437.9" y2="690.1"/>
				<line class="st6" x1="450.5" y1="690.1" x2="702" y2="690.1"/>
				<line class="st4" x1="714.6" y1="690.1" x2="716.6" y2="690.1"/>
			</g>
		</g>
	</g>
	<polyline class="st7" points="228.2,184.6 228.2,156.6 256.2,156.6 	"/>
	<polyline class="st7" points="851.1,184.6 851.1,156.6 823.1,156.6 	"/>
	<polyline class="st7" points="228.2,534.6 228.2,562.6 256.2,562.6 	"/>
	<polyline class="st7" points="851.1,534.6 851.1,562.6 823.1,562.6 	"/>
</g>
</svg>
