<?xml version="1.0" encoding="utf-8"?>
<!-- Generator: Adobe Illustrator 21.0.0, SVG Export Plug-In . SVG Version: 6.00 Build 0)  -->
<svg version="1.1" id="Layer_1" xmlns="http://www.w3.org/2000/svg" xmlns:xlink="http://www.w3.org/1999/xlink" x="0px" y="0px"
	 viewBox="0 0 1920 802" style="enable-background:new 0 0 1920 802;" xml:space="preserve">
<style type="text/css">
	.st0{fill:#FFFFFF;}
</style>
<g id="outside">
	<path id="ST_1_" class="st0" d="M620,390V132H451c-1.7,0-3,1.3-3,3c0,0.1,0,0.2,0,0.3l65,87.2l0.6,0.7
		c8.7,11.5,16.5,24.2,16.5,52.4c0,32.3-12.1,61.8-34.1,83C475,378.9,447.1,390,417.3,390H56V248h298.3c1.5,0,1.7-2.1,1.7-3
		c0-0.1,0-0.2,0-0.2c-8.2-9.7-53.7-63.6-62.9-74.7l-0.4-0.4l-0.3-0.5c-8.6-11.5-16.4-24.3-16.4-53.2c0-32.3,11.9-62,33.4-83.6
		C330.4,11.5,358.3,0,388,0h538v132H762v258H620z"/>
	<path id="A1_1_" class="st0" d="M1173.9,390l-16-50h-133.9l-16,50H867.8L994,0h191.9l128.5,390H1173.9z M1117.4,222l-26.4-78.2
		l-26.4,78.2H1117.4z"/>
	<path id="R" class="st0" d="M1630,390c-16.6,0-31.6-5.9-44.7-17.6c-22.2-19.8-60.6-56-89.3-83.2V390h-148V0h254
		c71.7,0,130,58.3,130,130c0,46.9-25.5,89.3-64.8,112.1c3.4,3.7,6.4,5.9,12.8,5.9h184v142H1630z M1573,156c10.5,0,19-8.5,19-19
		s-8.5-19-19-19h-77v38H1573z"/>
	<polygon id="W_1_" class="st0" points="399.2,802 343.5,638.3 287.8,802 190,802 62.7,412 206.1,412 238.8,514.4 274.3,412 
		412.7,412 448.2,514.4 480.9,412 624.3,412 497,802 	"/>
	<path id="A" class="st0" d="M869.9,802l-16-50H720.1l-16,50H563.8L690,412h191.9l128.5,390H869.9z M813.4,634L787,555.8L760.6,634
		H813.4z"/>
	<path id="RS_1_" class="st0" d="M1330,802c-16.6,0-31.6-5.9-44.7-17.6c-22.2-19.8-60.6-56-89.3-83.2V802h-148V412h254
		c71.7,0,130,58.3,130,130c0,46.9-25.5,89.3-64.8,112.1c3.4,3.7,6.4,5.9,12.8,5.9h212.3c1.5,0,1.7-2.1,1.7-3c0-0.1,0-0.2,0-0.2
		c-8.2-9.7-53.7-63.6-62.9-74.7l-0.4-0.4l-0.3-0.5c-8.6-11.5-16.4-24.3-16.4-53.2c0-32.3,11.9-62,33.4-83.6
		c20.9-20.9,48.8-32.4,78.6-32.4h238v132h-175c-1.7,0-3,1.3-3,3c0,0.1,0,0.2,0,0.3l65,87.2l0.6,0.7c8.7,11.5,16.5,24.2,16.5,52.4
		c0,32.3-12.1,61.8-34.1,83c-20.9,20.2-48.9,31.3-78.6,31.3H1330z M1273,568c10.5,0,19-8.5,19-19s-8.5-19-19-19h-77v38H1273z"/>
</g>
</svg>
