<?xml version="1.0" encoding="utf-8"?>
<!-- Generator: Adobe Illustrator 21.0.0, SVG Export Plug-In . SVG Version: 6.00 Build 0)  -->
<svg version="1.1" id="Layer_1" xmlns="http://www.w3.org/2000/svg" xmlns:xlink="http://www.w3.org/1999/xlink" x="0px" y="0px"
	 viewBox="0 0 70.4 86.1" style="enable-background:new 0 0 70.4 86.1;" xml:space="preserve">
	<style type="text/css">
		.st0{fill:#808080;}
		.st1{fill:#FFFFFF;}
		.st2{fill:none;}
	</style>

	<defs>
		<clipPath id="clip">
			<rect id="mask" y="0.3" class="st2" width="70.4" height="86.1"/>
		</clipPath>
	</defs>
		
	<polygon id="xwingB" class="st0" clip-path="url(#clip)" points="33.8,2.2 36.3,2.2 37.9,12.3 39.8,47.3 40.2,51.2 40.3,51.3 40.6,54.4 46.5,54.4 
		46.6,57.3 50.3,57.3 50.9,57.8 65.1,57.9 65.1,54.8 64.8,54.6 64.8,53.4 65.9,53.2 65.9,41.1 66.2,40.8 66.2,31.3 65.9,31.3 
		65.4,31.1 65.7,30.4 66.2,30.6 65.5,28.3 66.2,28.3 66.4,23.7 66.6,23.7 66.8,28.3 67.6,28.3 66.9,30.6 67.5,30.4 67.6,31 
		67.1,31.3 66.9,31.3 66.9,40.8 67.1,41.1 67.1,53.2 68.2,53.4 68.2,54.6 68,54.8 68,55.7 68.3,55.9 68.4,57.9 68.4,62.2 68.9,62.2 
		68.9,65.7 68.3,65.7 68.3,69.2 67.7,69.2 67.7,69.9 67.9,70.4 65.5,70.4 65.7,69.9 65.7,69.2 65.2,69.2 65.2,68.8 50.9,72.3 
		50.9,71.6 45,71.6 44.8,79 45,81 44.8,83.9 40.9,83.9 40.8,81 40.9,79 40.9,72 40.2,72 40.6,72.5 39.8,75.3 30.4,75.3 29.8,72.5 
		30.4,72 29.3,72 29.3,79 29.5,81 29.3,83.9 25.2,83.9 25.1,81 25.2,79 25.1,71.9 19.9,71.9 19.4,72.3 5.2,69 5.2,69.4 4.7,69.4 
		4.7,70.2 4.9,70.7 2.5,70.7 2.5,70.2 2.7,70.2 2.7,69.5 2.1,69.2 2,66 1.5,65.9 1.5,62.4 1.9,62.4 2,56.1 2.3,56 2.3,55 2,54.8 
		2,53.7 2.2,53.4 3,53.4 3,41.2 3.3,40.9 3.4,31.5 2.7,31 2.9,30.4 3.4,30.6 2.9,28.9 3.5,28.7 3.7,23.9 4,23.9 4.1,28.7 4.7,28.9 
		4.1,30.6 4.7,30.4 4.9,31 4.1,31.5 4.1,40.9 4.4,41.2 4.3,53.4 5.1,53.4 5.4,53.7 5.4,54.8 5.1,55 5.1,55.9 5.3,56.7 5.2,58.1 
		19.4,57.9 20.5,57.3 23.6,57.2 23.6,54.9 24.5,54.4 29.7,54.4 29.9,51.3 30.1,51.2 30.4,47.3 32.5,12.3 "/>

	<polygon id="xwingF" class="st1" points="33.8,2.2 36.3,2.2 37.9,12.3 39.8,47.3 40.2,51.2 40.3,51.3 40.6,54.4 46.5,54.4 
		46.6,57.3 50.3,57.3 50.9,57.8 65.1,57.9 65.1,54.8 64.8,54.6 64.8,53.4 65.9,53.2 65.9,41.1 66.2,40.8 66.2,31.3 65.9,31.3 
		65.4,31.1 65.7,30.4 66.2,30.6 65.5,28.3 66.2,28.3 66.4,23.7 66.6,23.7 66.8,28.3 67.6,28.3 66.9,30.6 67.5,30.4 67.6,31 
		67.1,31.3 66.9,31.3 66.9,40.8 67.1,41.1 67.1,53.2 68.2,53.4 68.2,54.6 68,54.8 68,55.7 68.3,55.9 68.4,57.9 68.4,62.2 68.9,62.2 
		68.9,65.7 68.3,65.7 68.3,69.2 67.7,69.2 67.7,69.9 67.9,70.4 65.5,70.4 65.7,69.9 65.7,69.2 65.2,69.2 65.2,68.8 50.9,72.3 
		50.9,71.6 45,71.6 44.8,79 45,81 44.8,83.9 40.9,83.9 40.8,81 40.9,79 40.9,72 40.2,72 40.6,72.5 39.8,75.3 30.4,75.3 29.8,72.5 
		30.4,72 29.3,72 29.3,79 29.5,81 29.3,83.9 25.2,83.9 25.1,81 25.2,79 25.1,71.9 19.9,71.9 19.4,72.3 5.2,69 5.2,69.4 4.7,69.4 
		4.7,70.2 4.9,70.7 2.5,70.7 2.5,70.2 2.7,70.2 2.7,69.5 2.1,69.2 2,66 1.5,65.9 1.5,62.4 1.9,62.4 2,56.1 2.3,56 2.3,55 2,54.8 
		2,53.7 2.2,53.4 3,53.4 3,41.2 3.3,40.9 3.4,31.5 2.7,31 2.9,30.4 3.4,30.6 2.9,28.9 3.5,28.7 3.7,23.9 4,23.9 4.1,28.7 4.7,28.9 
		4.1,30.6 4.7,30.4 4.9,31 4.1,31.5 4.1,40.9 4.4,41.2 4.3,53.4 5.1,53.4 5.4,53.7 5.4,54.8 5.1,55 5.1,55.9 5.3,56.7 5.2,58.1 
		19.4,57.9 20.5,57.3 23.6,57.2 23.6,54.9 24.5,54.4 29.7,54.4 29.9,51.3 30.1,51.2 30.4,47.3 32.5,12.3 "/>
	
</svg>
